<?xml version="1.0" encoding="UTF-8"?>
<svg width="192px" height="40px" viewBox="0 0 192 40" version="1.1" xmlns="http://www.w3.org/2000/svg" xmlns:xlink="http://www.w3.org/1999/xlink">
    <!-- Generator: Sketch 53.2 (72643) - https://sketchapp.com -->
    <title>style-5</title>
    <desc>Created with Sketch.</desc>
    <g id="style-5" stroke="none" stroke-width="1" fill="none" fill-rule="evenodd">
        <rect fill="#FFFFFF" x="0" y="0" width="192" height="40"></rect>
        <g id="Orion_facebook" transform="translate(19.000000, 14.000000)" fill="#202020" fill-rule="nonzero">
            <path d="M4.4625,2.2875 L6,2.2875 L6,0 L4.18125,0 C1.9875,0.09375 1.5375,1.33125 1.5,2.625 L1.5,3.76875 L0,3.76875 L0,6 L1.5,6 L1.5,12 L3.75,12 L3.75,6 L5.60625,6 L5.9625,3.76875 L3.75,3.76875 L3.75,3.075 C3.73784357,2.87553685 3.80655999,2.67958754 3.94063078,2.53140404 C4.07470156,2.38322054 4.26281907,2.29530077 4.4625,2.2875 Z" id="Path"></path>
        </g>
        <g id="Orion_twitter" transform="translate(53.000000, 15.000000)" fill="#202020" fill-rule="nonzero">
            <path d="M10.6017453,1.5322848 C11.0522858,1.21279073 11.390543,0.745658543 11.5642453,0.203074917 C11.2317453,0.424609897 10.4967453,0.738451119 10.1292453,0.738451119 C9.68215016,0.270297545 9.07917206,0.00525638952 8.44924528,1.18584626e-06 C7.83641009,-0.000636458474 7.24850129,0.255901253 6.81516116,0.713044096 C6.38182103,1.17018694 6.13864084,1.79038867 6.13924528,2.43688597 C6.13847743,2.61681537 6.1560789,2.79630885 6.19174528,2.97226217 C4.45924528,2.91687842 2.42924528,2.01227725 1.29174528,0.443071146 C0.69970399,1.5432398 1.00371888,2.93834554 1.99174528,3.65532836 C1.72924528,3.69225085 1.22174528,3.63686711 0.994245283,3.39687088 C0.976745283,4.2460883 1.36174528,5.37222445 2.77924528,5.77837191 C2.49924528,5.9260619 2.02674528,5.8891394 1.81674528,5.85221691 C1.88674528,6.57220559 2.84924528,7.51372926 3.88174528,7.51372926 C3.51424528,7.95679922 2.25424528,8.78755539 0.679245283,8.52909792 C1.77087504,9.22956785 3.02403316,9.59998112 4.30174528,9.59985032 C6.07181193,9.61223601 7.76867392,8.85548529 8.99356326,7.50743699 C10.2184526,6.1593887 10.8633655,4.33890611 10.7767453,2.47380846 L10.7767453,2.38150222 C11.2198767,2.05224408 11.5949654,1.63142906 11.8792453,1.14459858 C11.4766084,1.34730786 11.0449402,1.47830733 10.6017453,1.5322848 Z" id="Path"></path>
        </g>
        <g id="Orion_pinterest" transform="translate(90.000000, 14.000000)" fill="#202020" fill-rule="nonzero">
            <path d="M6.09230769,0.183507692 C3.29050746,0.185013385 0.874689822,2.15335887 0.307177077,4.8970819 C-0.260335668,7.64080494 1.17639203,10.4060124 3.74769231,11.5188923 C3.72171777,11.0666957 3.75900069,10.6130869 3.85846154,10.1712 C3.96923077,9.6912 4.61538462,6.94043077 4.61538462,6.94043077 C4.49079079,6.64230374 4.42798523,6.32199538 4.43076923,5.99889231 C4.43076923,5.11273846 4.94769231,4.46658462 5.57538462,4.46658462 C6.11076923,4.46658462 6.36923077,4.87273846 6.36923077,5.35273846 C6.36923077,5.88812308 6.01846154,6.70043077 5.85230769,7.45735385 C5.78093076,7.74090076 5.84842627,8.04149497 6.03417476,8.26730686 C6.21992326,8.49311876 6.50185668,8.61732049 6.79384615,8.60196923 C7.92,8.60196923 8.67692308,7.16196923 8.67692308,5.44504615 C8.67692308,4.15273846 7.80923077,3.17427692 6.20307692,3.17427692 C4.41230769,3.17427692 3.28615385,4.52196923 3.28615385,6.01735385 C3.26564338,6.43985225 3.40393874,6.85473833 3.67384615,7.18043077 C3.77255219,7.26003668 3.80966113,7.39362885 3.76615385,7.51273846 C3.72923077,7.62350769 3.67384615,7.88196923 3.63692308,7.99273846 C3.62588307,8.05699894 3.58492163,8.1121704 3.52660326,8.14132959 C3.46828489,8.17048877 3.39957085,8.17015504 3.34153846,8.14043077 C2.51076923,7.80812308 2.12307692,6.90350769 2.12307692,5.86966154 C2.12307692,4.18966154 3.54461538,2.15889231 6.36923077,2.15889231 C8.64,2.15889231 10.1169231,3.80196923 10.1169231,5.55581538 C10.1169231,7.88196923 8.82461538,9.61735385 6.92307692,9.61735385 C6.27692308,9.61735385 5.68615385,9.26658462 5.48307692,8.87889231 C5.48307692,8.87889231 5.13230769,10.2450462 5.05846154,10.5035077 C4.91800764,10.9462871 4.71934634,11.3684424 4.46769231,11.7588923 C4.99326217,11.9237331 5.54152451,12.0047264 6.09230769,11.9988923 C9.35503606,11.9988923 12,9.35392837 12,6.0912 C12,2.82847163 9.35503606,0.183507692 6.09230769,0.183507692 L6.09230769,0.183507692 Z" id="Path"></path>
        </g>
        <g id="Orion_linkedin" transform="translate(127.000000, 14.000000)" fill="#202020" fill-rule="nonzero">
            <path d="M0.215625,3.69375 L2.653125,3.69375 L2.653125,11.0625 L0.215625,11.0625 L0.215625,3.69375 Z M8.94375,3.45 C7.875,3.45 7.2375,3.84375 6.5625,4.70625 L6.5625,3.69375 L4.125,3.69375 L4.125,11.0625 L6.58125,11.0625 L6.58125,7.06875 C6.58125,6.225 7.0125,5.4 7.9875,5.4 C8.9625,5.4 9.54375,6.225 9.54375,7.05 L9.54375,11.0625 L12,11.0625 L12,6.88125 C12,3.975 10.03125,3.45 8.94375,3.45 Z M1.44375,0.1125 C0.6375,0.1125 0,0.69375 0,1.40625 C0,2.11875 0.6375,2.7 1.44375,2.7 C2.25,2.7 2.8875,2.11875 2.8875,1.40625 C2.8875,0.69375 2.25,0.1125 1.44375,0.1125 Z" id="Shape"></path>
        </g>
        <g id="Orion_stumbleupon" transform="translate(164.000000, 15.000000)" fill="#202020" fill-rule="nonzero">
            <path d="M6.6375,3.58125 L7.4625,3.975 L8.7,3.58125 L8.7,2.86875 C8.69999998,1.38275886 7.49536614,0.17812504 6.009375,0.17812504 C4.52338386,0.17812504 3.31875002,1.38275886 3.31875,2.86875 L3.31875,6.61875 C3.32016346,6.78825487 3.25345245,6.95122803 3.13359024,7.07109024 C3.01372803,7.19095245 2.85075487,7.25766346 2.68125,7.25625 C2.51366604,7.25690599 2.35303199,7.18933082 2.236313,7.06907488 C2.119594,6.94881895 2.05684291,6.78623973 2.0625,6.61875 L2.0625,5.04375 L0,5.04375 L0,6.61875 C2.20658404e-08,8.09956347 1.20043653,9.29999996 2.68125,9.29999996 C4.16206347,9.29999996 5.36249998,8.09956347 5.3625,6.61875 L5.3625,2.86875 C5.3625,2.51666847 5.64791847,2.23125 6,2.23125 C6.35208153,2.23125 6.6375,2.51666847 6.6375,2.86875 L6.6375,3.58125 Z" id="Path"></path>
            <path d="M9.9375,5.04375 L9.9375,6.61875 C9.93750001,6.84650682 9.8159932,7.0569628 9.61875001,7.17084122 C9.42150682,7.28471963 9.17849318,7.28471963 8.98124999,7.17084122 C8.7840068,7.0569628 8.66249999,6.84650682 8.6625,6.61875 L8.6625,5.00625 L7.425,5.4 L6.6,5.00625 L6.6,6.61875 C6.6,8.10991882 7.80883118,9.31875 9.3,9.31875 C10.7911688,9.31875 12,8.10991882 12,6.61875 L12,5.04375 L9.9375,5.04375 Z" id="Path"></path>
        </g>
    </g>
</svg>