<?xml version="1.0" encoding="UTF-8"?>
<svg width="192px" height="40px" viewBox="0 0 192 40" version="1.1" xmlns="http://www.w3.org/2000/svg" xmlns:xlink="http://www.w3.org/1999/xlink">
    <!-- Generator: Sketch 53.2 (72643) - https://sketchapp.com -->
    <title>style-7</title>
    <desc>Created with Sketch.</desc>
    <g id="style-7" stroke="none" stroke-width="1" fill="none" fill-rule="evenodd">
        <rect fill="#FFFFFF" x="0" y="0" width="192" height="40"></rect>
        <rect id="Rectangle" fill="#E3E3E3" x="6" y="6" width="87" height="28" rx="10"></rect>
        <rect id="Rectangle" fill="#E3E3E3" x="99" y="6" width="87" height="28" rx="10"></rect>
        <g id="Group" transform="translate(20.000000, 13.000000)" fill-rule="nonzero">
            <g id="Orion_facebook" transform="translate(0.000000, 1.000000)" fill="#202020">
                <path d="M4.4625,2.2875 L6,2.2875 L6,0 L4.18125,0 C1.9875,0.09375 1.5375,1.33125 1.5,2.625 L1.5,3.76875 L0,3.76875 L0,6 L1.5,6 L1.5,12 L3.75,12 L3.75,6 L5.60625,6 L5.9625,3.76875 L3.75,3.76875 L3.75,3.075 C3.73784357,2.87553685 3.80655999,2.67958754 3.94063078,2.53140404 C4.07470156,2.38322054 4.26281907,2.29530077 4.4625,2.2875 Z" id="Path"></path>
            </g>
            <path d="M15.0996094,11 L13.9423828,11 L13.9423828,3.86132812 L17.9707031,3.86132812 L17.9707031,4.84765625 L15.0996094,4.84765625 L15.0996094,7.07910156 L17.7900391,7.07910156 L17.7900391,8.0703125 L15.0996094,8.0703125 L15.0996094,11 Z M22.5214844,11 L22.2919922,10.2480469 L22.2529297,10.2480469 C21.9925117,10.5768246 21.7304701,10.8006179 21.4667969,10.9194336 C21.2031237,11.0382493 20.8645854,11.0976562 20.4511719,11.0976562 C19.9205703,11.0976562 19.5063491,10.9544285 19.2084961,10.6679688 C18.910643,10.381509 18.7617188,9.9762396 18.7617188,9.45214844 C18.7617188,8.89550503 18.9684224,8.47558735 19.3818359,8.19238281 C19.7952495,7.90917827 20.425126,7.75455742 21.2714844,7.72851562 L22.2041016,7.69921875 L22.2041016,7.41113281 C22.2041016,7.066079 22.123536,6.80810632 21.9624023,6.63720703 C21.8012687,6.46630774 21.551434,6.38085938 21.2128906,6.38085938 C20.9361965,6.38085938 20.6708997,6.42154907 20.4169922,6.50292969 C20.1630847,6.5843103 19.9189465,6.68033799 19.6845703,6.79101562 L19.3134766,5.97070312 C19.6064468,5.81770757 19.9270816,5.70133503 20.2753906,5.62158203 C20.6236997,5.54182903 20.9524724,5.50195312 21.2617188,5.50195312 C21.9485711,5.50195312 22.4669579,5.65169121 22.8168945,5.95117188 C23.1668312,6.25065254 23.3417969,6.72102544 23.3417969,7.36230469 L23.3417969,11 L22.5214844,11 Z M20.8125,10.21875 C21.2291687,10.21875 21.5636381,10.1023775 21.815918,9.86962891 C22.0681979,9.63688035 22.1943359,9.31054897 22.1943359,8.890625 L22.1943359,8.421875 L21.5009766,8.45117188 C20.9606093,8.47070322 20.5675468,8.56103435 20.3217773,8.72216797 C20.0760079,8.88330159 19.953125,9.12988115 19.953125,9.46191406 C19.953125,9.70280068 20.0247389,9.8891595 20.1679688,10.0209961 C20.3111986,10.1528327 20.5260402,10.21875 20.8125,10.21875 Z M27.1210938,11.0976562 C26.3040324,11.0976562 25.6831076,10.8592146 25.2583008,10.3823242 C24.833494,9.90543381 24.6210938,9.22103311 24.6210938,8.32910156 C24.6210938,7.4208939 24.8432595,6.72265869 25.2875977,6.234375 C25.7319358,5.74609131 26.3740192,5.50195312 27.2138672,5.50195312 C27.7835315,5.50195312 28.2962217,5.60774634 28.7519531,5.81933594 L28.4052734,6.7421875 C27.920245,6.55338447 27.5198583,6.45898438 27.2041016,6.45898438 C26.2698521,6.45898438 25.8027344,7.07909536 25.8027344,8.31933594 C25.8027344,8.92480771 25.9191069,9.37971853 26.1518555,9.68408203 C26.384604,9.98844553 26.7255837,10.140625 27.1748047,10.140625 C27.685875,10.140625 28.1692686,10.0136731 28.625,9.75976562 L28.625,10.7607422 C28.4199208,10.8811855 28.2010103,10.9674477 27.9682617,11.0195312 C27.7355132,11.0716148 27.4531267,11.0976562 27.1210938,11.0976562 Z M32.2529297,11.0976562 C31.4130817,11.0976562 30.75635,10.8527043 30.2827148,10.362793 C29.8090797,9.87288167 29.5722656,9.19824648 29.5722656,8.33886719 C29.5722656,7.45670132 29.79199,6.76334888 30.2314453,6.25878906 C30.6709006,5.75422925 31.2747357,5.50195312 32.0429688,5.50195312 C32.7558629,5.50195312 33.3190083,5.71842231 33.7324219,6.15136719 C34.1458354,6.58431206 34.3525391,7.18000923 34.3525391,7.93847656 L34.3525391,8.55859375 L30.7539062,8.55859375 C30.7701824,9.08268491 30.9117825,9.48551292 31.1787109,9.76708984 C31.4456394,10.0486668 31.8216122,10.1894531 32.3066406,10.1894531 C32.6256526,10.1894531 32.9226874,10.1593427 33.1977539,10.0991211 C33.4728204,10.0388994 33.7682276,9.93880278 34.0839844,9.79882812 L34.0839844,10.7314453 C33.8040351,10.8649095 33.5208348,10.9593096 33.234375,11.0146484 C32.9479152,11.0699873 32.6207701,11.0976562 32.2529297,11.0976562 Z M32.0429688,6.37109375 C31.6783836,6.37109375 31.3862316,6.48665249 31.1665039,6.71777344 C30.9467762,6.94889438 30.8157554,7.28580508 30.7734375,7.72851562 L33.2246094,7.72851562 C33.2180989,7.28254985 33.1106781,6.94482537 32.9023438,6.71533203 C32.6940094,6.4858387 32.4075539,6.37109375 32.0429688,6.37109375 Z M38.4150391,5.50195312 C39.0888706,5.50195312 39.6137677,5.74609131 39.9897461,6.234375 C40.3657245,6.72265869 40.5537109,7.40787319 40.5537109,8.29003906 C40.5537109,9.17546016 40.3632832,9.86474363 39.9824219,10.3579102 C39.6015606,10.8510767 39.0725945,11.0976562 38.3955078,11.0976562 C37.7119106,11.0976562 37.181317,10.8518905 36.8037109,10.3603516 L36.7255859,10.3603516 L36.515625,11 L35.65625,11 L35.65625,3.40234375 L36.8037109,3.40234375 L36.8037109,5.20898438 C36.8037109,5.34244858 36.7972006,5.54101431 36.7841797,5.8046875 C36.7711588,6.06836069 36.7613933,6.23600225 36.7548828,6.30761719 L36.8037109,6.30761719 C37.1682961,5.77050513 37.7054001,5.50195312 38.4150391,5.50195312 Z M38.1171875,6.43945312 C37.6549456,6.43945312 37.3221039,6.57535671 37.1186523,6.84716797 C36.9152008,7.11897922 36.8102214,7.57389004 36.8037109,8.21191406 L36.8037109,8.29003906 C36.8037109,8.94759443 36.9078766,9.42366389 37.1162109,9.71826172 C37.3245453,10.0128595 37.6647112,10.1601562 38.1367188,10.1601562 C38.5436218,10.1601562 38.8520497,9.99902505 39.0620117,9.67675781 C39.2719737,9.35449058 39.3769531,8.88900044 39.3769531,8.28027344 C39.3769531,7.05305376 38.9570354,6.43945312 38.1171875,6.43945312 Z M46.6767578,8.29003906 C46.6767578,9.17220493 46.4505231,9.86067461 45.9980469,10.3554688 C45.5455707,10.8502629 44.9156941,11.0976562 44.1083984,11.0976562 C43.6038386,11.0976562 43.1578795,10.9837251 42.7705078,10.7558594 C42.3831361,10.5279937 42.0852875,10.2008485 41.8769531,9.77441406 C41.6686188,9.34797964 41.5644531,8.85319292 41.5644531,8.29003906 C41.5644531,7.41438364 41.7890603,6.73079673 42.2382812,6.23925781 C42.6875022,5.7477189 43.3206339,5.50195312 44.1376953,5.50195312 C44.9189492,5.50195312 45.5374326,5.75341545 45.9931641,6.25634766 C46.4488955,6.75927986 46.6767578,7.43717021 46.6767578,8.29003906 Z M42.7460938,8.29003906 C42.7460938,9.53679009 43.2067011,10.1601562 44.1279297,10.1601562 C45.0393926,10.1601562 45.4951172,9.53679009 45.4951172,8.29003906 C45.4951172,7.05630894 45.0361374,6.43945312 44.1181641,6.43945312 C43.6363908,6.43945312 43.2872732,6.59895674 43.0708008,6.91796875 C42.8543283,7.23698076 42.7460938,7.69433296 42.7460938,8.29003906 Z M52.7851562,8.29003906 C52.7851562,9.17220493 52.5589215,9.86067461 52.1064453,10.3554688 C51.6539691,10.8502629 51.0240926,11.0976562 50.2167969,11.0976562 C49.7122371,11.0976562 49.266278,10.9837251 48.8789062,10.7558594 C48.4915345,10.5279937 48.1936859,10.2008485 47.9853516,9.77441406 C47.7770172,9.34797964 47.6728516,8.85319292 47.6728516,8.29003906 C47.6728516,7.41438364 47.8974587,6.73079673 48.3466797,6.23925781 C48.7959007,5.7477189 49.4290324,5.50195312 50.2460938,5.50195312 C51.0273477,5.50195312 51.6458311,5.75341545 52.1015625,6.25634766 C52.5572939,6.75927986 52.7851562,7.43717021 52.7851562,8.29003906 Z M48.8544922,8.29003906 C48.8544922,9.53679009 49.3150996,10.1601562 50.2363281,10.1601562 C51.147791,10.1601562 51.6035156,9.53679009 51.6035156,8.29003906 C51.6035156,7.05630894 51.1445358,6.43945312 50.2265625,6.43945312 C49.7447893,6.43945312 49.3956717,6.59895674 49.1791992,6.91796875 C48.9627268,7.23698076 48.8544922,7.69433296 48.8544922,8.29003906 Z M55.2119141,8.1484375 L55.8613281,7.33789062 L57.4921875,5.59960938 L58.8154297,5.59960938 L56.6425781,7.91894531 L58.9521484,11 L57.6044922,11 L55.8710938,8.63183594 L55.2412109,9.14941406 L55.2412109,11 L54.1035156,11 L54.1035156,3.40234375 L55.2412109,3.40234375 L55.2412109,7.10839844 L55.1826172,8.1484375 L55.2119141,8.1484375 Z" id="Facebook" fill="#000000"></path>
        </g>
        <g id="Group-2" transform="translate(116.000000, 13.000000)" fill-rule="nonzero">
            <g id="Orion_twitter" transform="translate(0.000000, 2.000000)" fill="#202020">
                <path d="M10.6017453,1.5322848 C11.0522858,1.21279073 11.390543,0.745658543 11.5642453,0.203074917 C11.2317453,0.424609897 10.4967453,0.738451119 10.1292453,0.738451119 C9.68215016,0.270297545 9.07917206,0.00525638952 8.44924528,1.18584626e-06 C7.83641009,-0.000636458474 7.24850129,0.255901253 6.81516116,0.713044096 C6.38182103,1.17018694 6.13864084,1.79038867 6.13924528,2.43688597 C6.13847743,2.61681537 6.1560789,2.79630885 6.19174528,2.97226217 C4.45924528,2.91687842 2.42924528,2.01227725 1.29174528,0.443071146 C0.69970399,1.5432398 1.00371888,2.93834554 1.99174528,3.65532836 C1.72924528,3.69225085 1.22174528,3.63686711 0.994245283,3.39687088 C0.976745283,4.2460883 1.36174528,5.37222445 2.77924528,5.77837191 C2.49924528,5.9260619 2.02674528,5.8891394 1.81674528,5.85221691 C1.88674528,6.57220559 2.84924528,7.51372926 3.88174528,7.51372926 C3.51424528,7.95679922 2.25424528,8.78755539 0.679245283,8.52909792 C1.77087504,9.22956785 3.02403316,9.59998112 4.30174528,9.59985032 C6.07181193,9.61223601 7.76867392,8.85548529 8.99356326,7.50743699 C10.2184526,6.1593887 10.8633655,4.33890611 10.7767453,2.47380846 L10.7767453,2.38150222 C11.2198767,2.05224408 11.5949654,1.63142906 11.8792453,1.14459858 C11.4766084,1.34730786 11.0449402,1.47830733 10.6017453,1.5322848 Z" id="Path"></path>
            </g>
            <path d="M22.4082031,11 L21.2412109,11 L21.2412109,4.86230469 L19.1416016,4.86230469 L19.1416016,3.86132812 L24.5078125,3.86132812 L24.5078125,4.86230469 L22.4082031,4.86230469 L22.4082031,11 Z M29.9082031,11 L29.2099609,8.48046875 C29.1253251,8.21354033 28.9723318,7.59342935 28.7509766,6.62011719 L28.7070312,6.62011719 C28.5182282,7.49902783 28.3684901,8.12239399 28.2578125,8.49023438 L27.5400391,11 L26.2705078,11 L24.7568359,5.59960938 L25.9287109,5.59960938 L26.6171875,8.26074219 C26.7734383,8.91829756 26.8841143,9.48144297 26.9492188,9.95019531 L26.9785156,9.95019531 C27.0110679,9.71256392 27.0607093,9.43994294 27.1274414,9.13232422 C27.1941735,8.82470549 27.2519529,8.59440181 27.3007812,8.44140625 L28.1210938,5.59960938 L29.3808594,5.59960938 L30.1767578,8.44140625 C30.2255862,8.60091226 30.2866207,8.84505044 30.3598633,9.17382812 C30.4331058,9.50260581 30.4762369,9.75813711 30.4892578,9.94042969 L30.5283203,9.94042969 C30.5771487,9.54003706 30.6910798,8.98014683 30.8701172,8.26074219 L31.5683594,5.59960938 L32.7207031,5.59960938 L31.1972656,11 L29.9082031,11 Z M34.7958984,11 L33.6484375,11 L33.6484375,5.59960938 L34.7958984,5.59960938 L34.7958984,11 Z M33.5800781,4.16894531 C33.5800781,3.96386616 33.6362299,3.80599014 33.7485352,3.6953125 C33.8608404,3.58463486 34.0211578,3.52929688 34.2294922,3.52929688 C34.4313161,3.52929688 34.5883783,3.58463486 34.7006836,3.6953125 C34.8129888,3.80599014 34.8691406,3.96386616 34.8691406,4.16894531 C34.8691406,4.36425879 34.8129888,4.51806584 34.7006836,4.63037109 C34.5883783,4.74267634 34.4313161,4.79882812 34.2294922,4.79882812 C34.0211578,4.79882812 33.8608404,4.74267634 33.7485352,4.63037109 C33.6362299,4.51806584 33.5800781,4.36425879 33.5800781,4.16894531 Z M38.4482422,10.1699219 C38.7281915,10.1699219 39.0081366,10.125977 39.2880859,10.0380859 L39.2880859,10.9023438 C39.1611322,10.9576826 38.9975596,11.0040688 38.7973633,11.0415039 C38.597167,11.078939 38.3896495,11.0976562 38.1748047,11.0976562 C37.0875597,11.0976562 36.5439453,10.5247453 36.5439453,9.37890625 L36.5439453,6.46875 L35.8066406,6.46875 L35.8066406,5.9609375 L36.5976562,5.54101562 L36.9882812,4.3984375 L37.6962891,4.3984375 L37.6962891,5.59960938 L39.234375,5.59960938 L39.234375,6.46875 L37.6962891,6.46875 L37.6962891,9.359375 C37.6962891,9.63606909 37.7654615,9.84033137 37.9038086,9.97216797 C38.0421556,10.1040046 38.2236317,10.1699219 38.4482422,10.1699219 Z M42.3789062,10.1699219 C42.6588556,10.1699219 42.9388007,10.125977 43.21875,10.0380859 L43.21875,10.9023438 C43.0917962,10.9576826 42.9282237,11.0040688 42.7280273,11.0415039 C42.527831,11.078939 42.3203136,11.0976562 42.1054688,11.0976562 C41.0182237,11.0976562 40.4746094,10.5247453 40.4746094,9.37890625 L40.4746094,6.46875 L39.7373047,6.46875 L39.7373047,5.9609375 L40.5283203,5.54101562 L40.9189453,4.3984375 L41.6269531,4.3984375 L41.6269531,5.59960938 L43.1650391,5.59960938 L43.1650391,6.46875 L41.6269531,6.46875 L41.6269531,9.359375 C41.6269531,9.63606909 41.6961256,9.84033137 41.8344727,9.97216797 C41.9728197,10.1040046 42.1542958,10.1699219 42.3789062,10.1699219 Z M46.65625,11.0976562 C45.8164021,11.0976562 45.1596703,10.8527043 44.6860352,10.362793 C44.2124,9.87288167 43.9755859,9.19824648 43.9755859,8.33886719 C43.9755859,7.45670132 44.1953103,6.76334888 44.6347656,6.25878906 C45.0742209,5.75422925 45.6780561,5.50195312 46.4462891,5.50195312 C47.1591833,5.50195312 47.7223287,5.71842231 48.1357422,6.15136719 C48.5491557,6.58431206 48.7558594,7.18000923 48.7558594,7.93847656 L48.7558594,8.55859375 L45.1572266,8.55859375 C45.1735027,9.08268491 45.3151028,9.48551292 45.5820312,9.76708984 C45.8489597,10.0486668 46.2249325,10.1894531 46.7099609,10.1894531 C47.0289729,10.1894531 47.3260077,10.1593427 47.6010742,10.0991211 C47.8761407,10.0388994 48.1715479,9.93880278 48.4873047,9.79882812 L48.4873047,10.7314453 C48.2073554,10.8649095 47.9241551,10.9593096 47.6376953,11.0146484 C47.3512355,11.0699873 47.0240904,11.0976562 46.65625,11.0976562 Z M46.4462891,6.37109375 C46.0817039,6.37109375 45.7895519,6.48665249 45.5698242,6.71777344 C45.3500966,6.94889438 45.2190757,7.28580508 45.1767578,7.72851562 L47.6279297,7.72851562 C47.6214192,7.28254985 47.5139984,6.94482537 47.3056641,6.71533203 C47.0973297,6.4858387 46.8108742,6.37109375 46.4462891,6.37109375 Z M52.7988281,5.50195312 C53.0299491,5.50195312 53.2203769,5.518229 53.3701172,5.55078125 L53.2578125,6.62011719 C53.0950513,6.58105449 52.9257821,6.56152344 52.75,6.56152344 C52.2910133,6.56152344 51.9191095,6.71126152 51.6342773,7.01074219 C51.3494452,7.31022285 51.2070312,7.69921636 51.2070312,8.17773438 L51.2070312,11 L50.0595703,11 L50.0595703,5.59960938 L50.9580078,5.59960938 L51.109375,6.55175781 L51.1679688,6.55175781 C51.3470061,6.22949058 51.580565,5.97395928 51.8686523,5.78515625 C52.1567397,5.59635322 52.4667952,5.50195312 52.7988281,5.50195312 Z" id="Twitter" fill="#000000"></path>
        </g>
    </g>
</svg>