<?xml version="1.0" encoding="UTF-8"?>
<svg width="192px" height="40px" viewBox="0 0 192 40" version="1.1" xmlns="http://www.w3.org/2000/svg" xmlns:xlink="http://www.w3.org/1999/xlink">
    <!-- Generator: Sketch 53.2 (72643) - https://sketchapp.com -->
    <title>variant-1</title>
    <desc>Created with Sketch.</desc>
    <g id="variant-1" stroke="none" stroke-width="1" fill="none" fill-rule="evenodd">
        <rect fill="#FFFFFF" x="0" y="0" width="192" height="40"></rect>
        <rect id="Rectangle" fill="#E3E3E3" x="6" y="6" width="56" height="28"></rect>
        <rect id="Rectangle" fill="#E3E3E3" x="68" y="6" width="56" height="28"></rect>
        <rect id="Rectangle" fill="#E3E3E3" x="130" y="6" width="56" height="28"></rect>
        <g id="Orion_facebook" transform="translate(31.000000, 14.000000)" fill="#202020" fill-rule="nonzero">
            <path d="M4.4625,2.2875 L6,2.2875 L6,0 L4.18125,0 C1.9875,0.09375 1.5375,1.33125 1.5,2.625 L1.5,3.76875 L0,3.76875 L0,6 L1.5,6 L1.5,12 L3.75,12 L3.75,6 L5.60625,6 L5.9625,3.76875 L3.75,3.76875 L3.75,3.075 C3.73784357,2.87553685 3.80655999,2.67958754 3.94063078,2.53140404 C4.07470156,2.38322054 4.26281907,2.29530077 4.4625,2.2875 Z" id="Path"></path>
        </g>
        <g id="Orion_twitter" transform="translate(90.000000, 15.000000)" fill="#202020" fill-rule="nonzero">
            <path d="M10.6017453,1.5322848 C11.0522858,1.21279073 11.390543,0.745658543 11.5642453,0.203074917 C11.2317453,0.424609897 10.4967453,0.738451119 10.1292453,0.738451119 C9.68215016,0.270297545 9.07917206,0.00525638952 8.44924528,1.18584626e-06 C7.83641009,-0.000636458474 7.24850129,0.255901253 6.81516116,0.713044096 C6.38182103,1.17018694 6.13864084,1.79038867 6.13924528,2.43688597 C6.13847743,2.61681537 6.1560789,2.79630885 6.19174528,2.97226217 C4.45924528,2.91687842 2.42924528,2.01227725 1.29174528,0.443071146 C0.69970399,1.5432398 1.00371888,2.93834554 1.99174528,3.65532836 C1.72924528,3.69225085 1.22174528,3.63686711 0.994245283,3.39687088 C0.976745283,4.2460883 1.36174528,5.37222445 2.77924528,5.77837191 C2.49924528,5.9260619 2.02674528,5.8891394 1.81674528,5.85221691 C1.88674528,6.57220559 2.84924528,7.51372926 3.88174528,7.51372926 C3.51424528,7.95679922 2.25424528,8.78755539 0.679245283,8.52909792 C1.77087504,9.22956785 3.02403316,9.59998112 4.30174528,9.59985032 C6.07181193,9.61223601 7.76867392,8.85548529 8.99356326,7.50743699 C10.2184526,6.1593887 10.8633655,4.33890611 10.7767453,2.47380846 L10.7767453,2.38150222 C11.2198767,2.05224408 11.5949654,1.63142906 11.8792453,1.14459858 C11.4766084,1.34730786 11.0449402,1.47830733 10.6017453,1.5322848 Z" id="Path"></path>
        </g>
        <g id="Orion_pinterest" transform="translate(152.000000, 14.000000)" fill="#202020" fill-rule="nonzero">
            <path d="M6.09230769,0.183507692 C3.29050746,0.185013385 0.874689822,2.15335887 0.307177077,4.8970819 C-0.260335668,7.64080494 1.17639203,10.4060124 3.74769231,11.5188923 C3.72171777,11.0666957 3.75900069,10.6130869 3.85846154,10.1712 C3.96923077,9.6912 4.61538462,6.94043077 4.61538462,6.94043077 C4.49079079,6.64230374 4.42798523,6.32199538 4.43076923,5.99889231 C4.43076923,5.11273846 4.94769231,4.46658462 5.57538462,4.46658462 C6.11076923,4.46658462 6.36923077,4.87273846 6.36923077,5.35273846 C6.36923077,5.88812308 6.01846154,6.70043077 5.85230769,7.45735385 C5.78093076,7.74090076 5.84842627,8.04149497 6.03417476,8.26730686 C6.21992326,8.49311876 6.50185668,8.61732049 6.79384615,8.60196923 C7.92,8.60196923 8.67692308,7.16196923 8.67692308,5.44504615 C8.67692308,4.15273846 7.80923077,3.17427692 6.20307692,3.17427692 C4.41230769,3.17427692 3.28615385,4.52196923 3.28615385,6.01735385 C3.26564338,6.43985225 3.40393874,6.85473833 3.67384615,7.18043077 C3.77255219,7.26003668 3.80966113,7.39362885 3.76615385,7.51273846 C3.72923077,7.62350769 3.67384615,7.88196923 3.63692308,7.99273846 C3.62588307,8.05699894 3.58492163,8.1121704 3.52660326,8.14132959 C3.46828489,8.17048877 3.39957085,8.17015504 3.34153846,8.14043077 C2.51076923,7.80812308 2.12307692,6.90350769 2.12307692,5.86966154 C2.12307692,4.18966154 3.54461538,2.15889231 6.36923077,2.15889231 C8.64,2.15889231 10.1169231,3.80196923 10.1169231,5.55581538 C10.1169231,7.88196923 8.82461538,9.61735385 6.92307692,9.61735385 C6.27692308,9.61735385 5.68615385,9.26658462 5.48307692,8.87889231 C5.48307692,8.87889231 5.13230769,10.2450462 5.05846154,10.5035077 C4.91800764,10.9462871 4.71934634,11.3684424 4.46769231,11.7588923 C4.99326217,11.9237331 5.54152451,12.0047264 6.09230769,11.9988923 C9.35503606,11.9988923 12,9.35392837 12,6.0912 C12,2.82847163 9.35503606,0.183507692 6.09230769,0.183507692 L6.09230769,0.183507692 Z" id="Path"></path>
        </g>
    </g>
</svg>